<?xml version="1.0" encoding="UTF-8" standalone="no"?>
<svg
   xmlns:dc="http://purl.org/dc/elements/1.1/"
   xmlns:cc="http://creativecommons.org/ns#"
   xmlns:rdf="http://www.w3.org/1999/02/22-rdf-syntax-ns#"
   xmlns:svg="http://www.w3.org/2000/svg"
   xmlns="http://www.w3.org/2000/svg"
   xmlns:sodipodi="http://sodipodi.sourceforge.net/DTD/sodipodi-0.dtd"
   xmlns:inkscape="http://www.inkscape.org/namespaces/inkscape"
   inkscape:version="1.0 (4035a4f, 2020-05-01)"
   height="100"
   width="400"
   sodipodi:docname="searchspring_logo.svg"
   xml:space="preserve"
   viewBox="0 0 400.00001 99.999995"
   y="0px"
   x="0px"
   id="Layer_1"
   version="1.1"><metadata
   id="metadata81"><rdf:RDF><cc:Work
       rdf:about=""><dc:format>image/svg+xml</dc:format><dc:type
         rdf:resource="http://purl.org/dc/dcmitype/StillImage" /><dc:title></dc:title></cc:Work></rdf:RDF></metadata><defs
   id="defs79" /><sodipodi:namedview
   inkscape:current-layer="Layer_1"
   inkscape:window-maximized="0"
   inkscape:window-y="106"
   inkscape:window-x="57"
   inkscape:cy="33.365"
   inkscape:cx="172.76"
   inkscape:zoom="3.1749248"
   showgrid="false"
   id="namedview77"
   inkscape:window-height="1267"
   inkscape:window-width="1630"
   inkscape:pageshadow="2"
   inkscape:pageopacity="0"
   guidetolerance="10"
   gridtolerance="10"
   objecttolerance="10"
   borderopacity="1"
   bordercolor="#666666"
   pagecolor="#ffffff" />
<style
   id="style10"
   type="text/css">
	.st0{fill:url(#SVGID_1_);}
	.st1{fill:url(#SVGID_2_);}
	.st2{fill:#515151;}
</style>
<g
   transform="translate(25.827384,15.748405)"
   id="g74">
	<g
   id="g32">
		<g
   id="g30">
			<g
   id="g19">
				<linearGradient
   y2="19.2397"
   x2="43.801899"
   y1="19.2397"
   x1="4.2505002"
   gradientUnits="userSpaceOnUse"
   id="SVGID_1_">
					<stop
   id="stop12"
   style="stop-color:#3A23AD"
   offset="0" />
					<stop
   id="stop14"
   style="stop-color:#4C3CE2"
   offset="1" />
				</linearGradient>
				<path
   style="fill:url(#SVGID_1_)"
   id="path17"
   d="m 12.87,13.83 c 0,0 0,0.01 0.01,0.01 -0.16,0.07 -0.32,0.14 -0.47,0.21 C 4.51,17.87 1.9,28.81 6.57,38.48 L 35.18,24.65 c 0,0 0,-0.01 -0.01,-0.01 0.16,-0.07 0.32,-0.14 0.47,-0.21 C 43.54,20.61 46.16,9.67 41.48,0 Z"
   class="st0" />
			</g>
			<g
   id="g28">
				<linearGradient
   y2="47.490601"
   x2="39.551399"
   y1="47.490601"
   x1="0"
   gradientUnits="userSpaceOnUse"
   id="SVGID_2_">
					<stop
   id="stop21"
   style="stop-color:#3A23AD"
   offset="0" />
					<stop
   id="stop23"
   style="stop-color:#4C3CE2"
   offset="1" />
				</linearGradient>
				<path
   style="fill:url(#SVGID_2_)"
   id="path26"
   d="m 8.62,42.08 c 0,0 0,0.01 0.01,0.01 C 8.47,42.16 8.31,42.23 8.16,42.3 0.26,46.12 -2.35,57.05 2.32,66.73 L 30.93,52.9 c 0,0 0,-0.01 -0.01,-0.01 0.16,-0.07 0.32,-0.14 0.47,-0.21 7.9,-3.82 10.51,-14.75 5.84,-24.43 z"
   class="st1" />
			</g>
		</g>
	</g>
	<g
   id="g72">
		<g
   id="g64">
			<g
   id="g62">
				<g
   id="g60">
					<g
   id="g58">
						<path
   id="path34"
   d="m 69.19,38.18 c 1.66,1.48 5.23,2.96 7.86,2.96 2.13,0 3.01,-0.69 3.01,-1.66 0,-1.16 -1.53,-1.57 -3.84,-1.94 -3.79,-0.65 -9.16,-1.43 -9.16,-7.12 0,-3.93 3.38,-7.35 9.57,-7.35 3.75,0 6.94,1.2 9.34,2.96 l -2.73,4.72 C 81.9,29.46 79.36,28.3 76.67,28.3 c -1.66,0 -2.82,0.56 -2.82,1.53 0,1.02 1.2,1.39 3.56,1.8 3.79,0.65 9.43,1.57 9.43,7.49 0,4.25 -3.75,7.4 -10.17,7.4 -3.98,0 -8.09,-1.34 -10.45,-3.42 z"
   class="st2" />
						<path
   id="path36"
   d="m 99.99,23.06 c 6.61,0 11.42,4.86 11.42,12.44 v 1.53 H 95.5 c 0.42,2.08 2.36,3.98 5.69,3.98 1.99,0 4.21,-0.79 5.46,-1.9 l 3.01,4.44 c -2.22,1.99 -5.92,2.96 -9.34,2.96 -6.89,0 -12.21,-4.49 -12.21,-11.75 C 88.1,28.29 93,23.06 99.99,23.06 Z m -4.58,9.34 h 9.2 c -0.19,-1.57 -1.34,-3.84 -4.62,-3.84 -3.1,0 -4.3,2.22 -4.58,3.84 z"
   class="st2" />
						<path
   id="path38"
   d="m 127.18,43.73 c -1.39,1.66 -4.07,2.77 -6.94,2.77 -3.42,0 -7.68,-2.31 -7.68,-7.35 0,-5.41 4.25,-7.03 7.68,-7.03 2.96,0 5.6,0.93 6.94,2.59 v -2.82 c 0,-1.94 -1.66,-3.24 -4.53,-3.24 -2.22,0 -4.53,0.83 -6.33,2.36 l -2.54,-4.49 c 2.87,-2.45 6.71,-3.47 10.13,-3.47 5.36,0 10.4,1.99 10.4,8.92 v 13.97 h -7.12 v -2.21 z m 0,-5.5 c -0.74,-1.02 -2.4,-1.57 -3.98,-1.57 -1.9,0 -3.56,0.83 -3.56,2.59 0,1.76 1.66,2.59 3.56,2.59 1.57,0 3.24,-0.56 3.98,-1.62 z"
   class="st2" />
						<path
   id="path40"
   d="m 138.56,23.62 h 7.12 v 2.82 c 1.48,-1.8 4.3,-3.38 6.98,-3.38 v 6.89 c -0.42,-0.14 -1.02,-0.23 -1.76,-0.23 -1.85,0 -4.3,0.79 -5.23,2.08 v 14.15 h -7.12 V 23.62 Z"
   class="st2" />
						<path
   id="path42"
   d="m 165.71,23.06 c 4.81,0 7.82,2.13 9.16,4.12 l -4.62,4.3 c -0.88,-1.29 -2.31,-2.13 -4.21,-2.13 -2.96,0 -5.23,2.03 -5.23,5.41 0,3.38 2.27,5.46 5.23,5.46 1.9,0 3.33,-0.93 4.21,-2.17 l 4.62,4.35 c -1.34,1.94 -4.35,4.12 -9.16,4.12 -6.98,0 -12.21,-4.72 -12.21,-11.75 0,-6.99 5.23,-11.71 12.21,-11.71 z"
   class="st2" />
						<path
   id="path44"
   d="m 192.35,32.96 c 0,-2.73 -1.43,-3.61 -3.7,-3.61 -2.08,0 -3.47,1.16 -4.3,2.17 v 14.43 h -7.12 V 15.04 l 7.12,-3.32 v 14.63 c 1.34,-1.57 3.98,-3.28 7.72,-3.28 5.09,0 7.4,2.87 7.4,6.98 v 15.91 h -7.12 z"
   class="st2" />
						<path
   id="path46"
   d="m 204.8,38.18 c 1.66,1.48 5.23,2.96 7.86,2.96 2.13,0 3.01,-0.69 3.01,-1.66 0,-1.16 -1.53,-1.57 -3.84,-1.94 -3.79,-0.65 -9.16,-1.43 -9.16,-7.12 0,-3.93 3.38,-7.35 9.57,-7.35 3.75,0 6.94,1.2 9.34,2.96 l -2.73,4.72 c -1.34,-1.29 -3.88,-2.45 -6.57,-2.45 -1.66,0 -2.82,0.56 -2.82,1.53 0,1.02 1.2,1.39 3.56,1.8 3.79,0.65 9.43,1.57 9.43,7.49 0,4.25 -3.75,7.4 -10.17,7.4 -3.98,0 -8.09,-1.34 -10.45,-3.42 z"
   class="st2" />
						<path
   id="path48"
   d="M 225.19,54.46 V 23.62 h 7.12 v 2.59 c 1.76,-2.13 4.07,-3.14 6.61,-3.14 5.6,0 9.8,4.16 9.8,11.7 0,7.58 -4.21,11.75 -9.8,11.75 -2.5,0 -4.76,-0.97 -6.61,-3.19 v 11.14 h -7.12 z m 11.38,-25.11 c -1.53,0 -3.38,0.83 -4.25,2.03 v 6.8 c 0.88,1.16 2.73,2.03 4.25,2.03 2.77,0 4.9,-2.08 4.9,-5.46 0,-3.32 -2.13,-5.4 -4.9,-5.4 z"
   class="st2" />
						<path
   id="path50"
   d="m 251.56,23.62 h 7.12 v 2.82 c 1.48,-1.8 4.3,-3.38 6.98,-3.38 v 6.89 c -0.42,-0.14 -1.02,-0.23 -1.76,-0.23 -1.85,0 -4.3,0.79 -5.23,2.08 v 14.15 h -7.12 V 23.62 Z"
   class="st2" />
						<path
   id="path52"
   d="m 267.47,16.73 c 0,-2.27 1.8,-4.07 4.07,-4.07 2.27,0 4.07,1.8 4.07,4.07 0,2.27 -1.8,4.07 -4.07,4.07 -2.27,0 -4.07,-1.81 -4.07,-4.07 z m 0.51,6.89 h 7.12 v 22.34 h -7.12 z"
   class="st2" />
						<path
   id="path54"
   d="m 294.47,33.05 c 0,-2.73 -1.43,-3.7 -3.65,-3.7 -2.13,0 -3.51,1.16 -4.35,2.17 v 14.43 h -7.12 V 23.62 h 7.12 v 2.73 c 1.34,-1.57 3.98,-3.28 7.72,-3.28 5.09,0 7.4,2.96 7.4,7.08 v 15.81 h -7.12 z"
   class="st2" />
						<path
   id="path56"
   d="m 308.35,46.6 c 1.71,1.85 4.21,2.59 6.8,2.59 2.36,0 5.69,-0.97 5.69,-5.13 v -1.71 c -1.85,2.17 -4.07,3.24 -6.61,3.24 -5.46,0 -9.85,-3.75 -9.85,-11.28 0,-7.35 4.25,-11.24 9.85,-11.24 2.5,0 4.81,0.97 6.61,3.19 v -2.64 h 7.08 v 20.35 c 0,9.11 -7.21,11.05 -12.76,11.05 -3.84,0 -7.03,-0.97 -9.9,-3.33 z m 12.49,-15.26 c -0.88,-1.2 -2.77,-1.99 -4.25,-1.99 -2.82,0 -4.9,1.71 -4.9,4.95 0,3.28 2.08,4.99 4.9,4.99 1.48,0 3.38,-0.79 4.25,-1.99 z"
   class="st2" />
					</g>
				</g>
			</g>
		</g>
		<g
   id="g70">
			<path
   id="path66"
   d="m 335.39,24.44 h -1.76 v -1.12 h 4.79 v 1.12 h -1.75 v 4.88 h -1.29 v -4.88 z"
   class="st2" />
			<path
   id="path68"
   d="m 344.23,25 -1.69,4.32 h -0.56 L 340.29,25 v 4.32 h -1.28 v -6 h 1.79 l 1.46,3.74 1.46,-3.74 h 1.8 v 6 h -1.29 z"
   class="st2" />
		</g>
	</g>
</g>
</svg>
