<?xml version="1.0" encoding="UTF-8" standalone="no"?>
<svg
   xmlns:dc="http://purl.org/dc/elements/1.1/"
   xmlns:cc="http://creativecommons.org/ns#"
   xmlns:rdf="http://www.w3.org/1999/02/22-rdf-syntax-ns#"
   xmlns:svg="http://www.w3.org/2000/svg"
   xmlns="http://www.w3.org/2000/svg"
   xmlns:sodipodi="http://sodipodi.sourceforge.net/DTD/sodipodi-0.dtd"
   xmlns:inkscape="http://www.inkscape.org/namespaces/inkscape"
   inkscape:version="1.0 (4035a4f, 2020-05-01)"
   sodipodi:docname="favicon.svg"
   id="svg841"
   version="1.1"
   viewBox="0 0 34 34"
   height="34px"
   width="34px">
  <metadata
     id="metadata847">
    <rdf:RDF>
      <cc:Work
         rdf:about="">
        <dc:format>image/svg+xml</dc:format>
        <dc:type
           rdf:resource="http://purl.org/dc/dcmitype/StillImage" />
      </cc:Work>
    </rdf:RDF>
  </metadata>
  <defs
     id="defs845" />
  <sodipodi:namedview
     inkscape:current-layer="svg841"
     inkscape:window-maximized="0"
     inkscape:window-y="174"
     inkscape:window-x="416"
     inkscape:cy="19.578652"
     inkscape:cx="23.542135"
     inkscape:zoom="20.941176"
     showgrid="false"
     id="namedview843"
     inkscape:window-height="1092"
     inkscape:window-width="1634"
     inkscape:pageshadow="2"
     inkscape:pageopacity="0"
     guidetolerance="10"
     gridtolerance="10"
     objecttolerance="10"
     borderopacity="1"
     bordercolor="#666666"
     pagecolor="#ffffff" />
  <title
     id="title833">favicon.svg</title>
  <g
     fill-rule="evenodd"
     fill="none"
     stroke-width="1"
     stroke="none"
     id="favicon.svg">
    <g
       id="favicon-master-symbol">
      <path
         d="M 16.994141 0 A 17 17 0 0 0 0 17 A 17 17 0 0 0 17 34 A 17 17 0 0 0 34 17 A 17 17 0 0 0 17 0 A 17 17 0 0 0 16.994141 0 z M 25.626953 4.25 C 27.510909 7.9898356 26.458346 12.217609 23.275391 13.693359 C 23.211864 13.722124 23.14802 13.748577 23.083984 13.775391 L 23.087891 13.78125 L 11.560547 19.125 C 9.6765907 15.385652 10.729154 11.157391 13.912109 9.6816406 C 13.975128 9.6523889 14.03948 9.6264235 14.103516 9.5996094 L 14.099609 9.59375 L 25.626953 4.25 z M 23.501953 15.9375 C 25.385794 19.676848 24.333659 23.905109 21.150391 25.380859 C 21.087376 25.410111 21.022507 25.436077 20.958984 25.462891 L 20.960938 25.46875 L 9.4355469 30.8125 C 7.5517063 27.073152 8.6038407 22.844891 11.787109 21.369141 C 11.850124 21.339889 11.914993 21.313923 11.978516 21.287109 L 11.974609 21.28125 L 23.501953 15.9375 z "
         style="fill:#00cee1;fill-opacity:1"
         id="Oval" />
      <g
         fill-rule="nonzero"
         fill="#FFFFFF"
         transform="translate(8.500000, 4.250000)"
         id="searchspring-logo-mark" />
    </g>
  </g>
</svg>
